<svg width="96" height="35" viewBox="0 0 96 35" fill="none" xmlns="http://www.w3.org/2000/svg">
<path d="M18.415 19.3092C18.415 21.6429 17.5489 23.4955 15.8166 24.8669C14.1325 26.19 11.9191 26.8517 9.17633 26.8517C5.35095 26.8517 2.31952 25.7209 0.0820312 23.4594L2.6804 20.8971C4.31642 22.5332 6.50578 23.3512 9.24851 23.3512C12.7852 23.3512 14.5535 22.0399 14.5535 19.4175C14.5535 18.2387 14.2167 17.3483 13.543 16.7469C12.9656 16.2177 12.0273 15.8569 10.7281 15.6643L7.69671 15.2312C5.60357 14.9425 3.97959 14.2568 2.82476 13.1742C1.57369 11.9953 0.948155 10.3593 0.948155 8.26614C0.948155 6.0046 1.71805 4.18813 3.25782 2.81677C4.79759 1.42135 6.89072 0.723633 9.53722 0.723633C12.7611 0.723633 15.4196 1.69802 17.5128 3.64681L15.0227 6.10083C13.6273 4.77759 11.7627 4.11596 9.42895 4.11596C7.96136 4.11596 6.80653 4.50089 5.96446 5.27079C5.14646 5.99256 4.73745 6.9429 4.73745 8.12179C4.73745 9.13226 5.06224 9.92621 5.71184 10.5036C6.38548 11.1051 7.34786 11.5021 8.59892 11.6946L11.5221 12.1276C13.6633 12.4644 15.2633 13.102 16.3219 14.0403C17.7173 15.2673 18.415 17.0235 18.415 19.3092ZM34.2522 26.6352V24.7947C33.0012 26.1661 31.3772 26.8517 29.3802 26.8517C27.5276 26.8517 26.024 26.2983 24.8692 25.1917C23.6422 23.9886 23.0287 22.2685 23.0287 20.031V8.33832H26.7097V19.4897C26.7097 22.2084 27.9367 23.5677 30.3907 23.5677C31.4973 23.5677 32.3877 23.2429 33.0613 22.5933C33.807 21.8715 34.18 20.8371 34.18 19.4897V8.33832H37.861V26.6352H34.2522ZM54.0055 26.4548C54.0055 27.8261 53.6688 28.9209 52.995 29.7388C52.2493 30.6771 51.1426 31.1463 49.6749 31.1463C48.1834 31.1463 46.86 30.6049 45.7051 29.5223L43.3594 31.8681C45.1158 33.4799 47.269 34.286 49.8192 34.286C52.2253 34.286 54.1498 33.5521 55.5934 32.0846C56.989 30.665 57.6865 28.8126 57.6865 26.5269V8.33832H54.1137V10.2871C52.911 8.84356 51.2988 8.12179 49.2779 8.12179C47.4013 8.12179 45.9338 8.65107 44.8751 9.70968C43.5037 11.081 42.818 13.5591 42.818 17.1439C42.818 20.7288 43.5037 23.2068 44.8751 24.5782C45.9577 25.6608 47.4134 26.2022 49.2418 26.2022C49.8192 26.2022 50.3727 26.1539 50.9019 26.0578V22.8459C50.6853 22.8699 50.4688 22.882 50.2523 22.882C48.7608 22.882 47.7261 22.2925 47.1487 21.1137C46.7156 20.2475 46.4991 18.9244 46.4991 17.1439C46.4991 15.3635 46.7156 14.0403 47.1487 13.1742C47.7261 11.9953 48.7608 11.4058 50.2523 11.4058C51.768 11.4058 52.8146 11.9953 53.392 13.1742C53.8011 14.0403 54.0055 15.3635 54.0055 17.1439V26.4548ZM73.3066 20.031C73.3066 21.3062 73.0422 22.2084 72.5127 22.7376C71.7909 23.4354 70.6482 23.7842 69.0843 23.7842C66.871 23.7842 65.7641 22.9181 65.7641 21.1858C65.7641 19.4536 66.8589 18.5875 69.0482 18.5875H70.2752V16.0252H68.5069C66.4859 16.0252 64.9222 16.5183 63.8154 17.5048C62.7569 18.4431 62.2275 19.6941 62.2275 21.258C62.2275 22.8699 62.7087 24.1691 63.671 25.1556C64.7537 26.2622 66.3776 26.8157 68.543 26.8157C70.516 26.8157 72.1278 26.19 73.3788 24.939V26.5991H76.9516V14.4734C76.9516 10.3111 74.4496 8.23005 69.4452 8.23005C67.9055 8.23005 66.6664 8.41049 65.7281 8.77138C64.7176 9.18039 63.7914 9.86607 62.9492 10.8284L65.3311 13.102C66.2454 11.9231 67.5686 11.3337 69.3008 11.3337C70.6964 11.3337 71.7187 11.6224 72.3683 12.1998C72.9939 12.7291 73.3066 13.5832 73.3066 14.7621V20.031ZM92.7323 12.6329C91.9141 11.8149 91.0001 11.4058 89.9896 11.4058C88.9549 11.4058 88.1009 11.7788 87.4273 12.5246C86.7055 13.2945 86.3446 14.2929 86.3446 15.5199V26.6352H82.6636V8.33832H86.2725V10.3232C87.3309 8.85559 88.9549 8.12179 91.1444 8.12179C92.9006 8.12179 94.3563 8.6992 95.5111 9.85404L92.7323 12.6329Z" fill="#D44638"/>
</svg>
