<svg width="212" height="35" viewBox="0 0 412 100" fill="none" xmlns="http://www.w3.org/2000/svg">
<g clip-path="url(#clip0)">
<path d="M39.6421 61.8843C39.6421 66.649 37.8737 70.4316 34.3368 73.2316C30.8983 75.9332 26.3789 77.2843 20.7789 77.2843C12.9684 77.2843 6.77895 74.9753 2.21053 70.3579L7.51579 65.1264C10.8562 68.4669 15.3263 70.1369 20.9263 70.1369C28.1474 70.1369 31.7579 67.4595 31.7579 62.1053C31.7579 59.6985 31.0702 57.8806 29.6947 56.6527C28.5158 55.5722 26.6 54.8353 23.9474 54.4422L17.7579 53.5579C13.4842 52.9685 10.1684 51.5685 7.81053 49.3579C5.25614 46.9509 3.97895 43.6106 3.97895 39.3369C3.97895 34.7194 5.55089 31.0106 8.69474 28.2106C11.8386 25.3615 16.1123 23.9369 21.5158 23.9369C28.0983 23.9369 33.5263 25.9264 37.8 29.9053L32.7158 34.9158C29.8667 32.2141 26.0596 30.8632 21.2947 30.8632C18.2983 30.8632 15.9404 31.6492 14.2211 33.2211C12.5509 34.6948 11.7158 36.6352 11.7158 39.0422C11.7158 41.1053 12.3789 42.7264 13.7053 43.9053C15.0807 45.1334 17.0456 45.9439 19.6 46.3369L25.5684 47.2211C29.9404 47.9088 33.207 49.2106 35.3684 51.1264C38.2175 53.6316 39.6421 57.2174 39.6421 61.8843ZM71.9779 76.8422V73.0843C69.4237 75.8843 66.1079 77.2843 62.0305 77.2843C58.2479 77.2843 55.1779 76.1543 52.82 73.8948C50.3148 71.4385 49.0622 67.9264 49.0622 63.3579V39.4843H56.5779V62.2527C56.5779 67.8037 59.0832 70.579 64.0937 70.579C66.3532 70.579 68.1711 69.9158 69.5463 68.5895C71.069 67.1158 71.8305 65.0037 71.8305 62.2527V39.4843H79.3463V76.8422H71.9779ZM112.309 76.4737C112.309 79.2737 111.622 81.509 110.246 83.179C108.724 85.0948 106.464 86.0527 103.467 86.0527C100.422 86.0527 97.72 84.9474 95.3621 82.7369L90.5726 87.5264C94.159 90.8174 98.5553 92.4632 103.762 92.4632C108.675 92.4632 112.604 90.9648 115.552 87.9685C118.401 85.07 119.825 81.2879 119.825 76.6211V39.4843H112.531V43.4632C110.075 40.5158 106.783 39.0422 102.657 39.0422C98.8253 39.0422 95.8289 40.1228 93.6674 42.2843C90.8674 45.0843 89.4674 50.1439 89.4674 57.4632C89.4674 64.7827 90.8674 69.8422 93.6674 72.6422C95.8779 74.8527 98.85 75.9579 102.583 75.9579C103.762 75.9579 104.892 75.8595 105.973 75.6632V69.1053C105.531 69.1543 105.088 69.179 104.646 69.179C101.601 69.179 99.4884 67.9753 98.3095 65.5685C97.4253 63.8 96.9832 61.0985 96.9832 57.4632C96.9832 53.8279 97.4253 51.1264 98.3095 49.3579C99.4884 46.9509 101.601 45.7474 104.646 45.7474C107.741 45.7474 109.878 46.9509 111.057 49.3579C111.892 51.1264 112.309 53.8279 112.309 57.4632V76.4737ZM151.718 63.3579C151.718 65.9616 151.178 67.8037 150.097 68.8843C148.623 70.309 146.29 71.0211 143.097 71.0211C138.578 71.0211 136.318 69.2527 136.318 65.7158C136.318 62.179 138.553 60.4106 143.023 60.4106H145.528V55.179H141.918C137.792 55.179 134.599 56.1858 132.339 58.2C130.178 60.1158 129.097 62.67 129.097 65.8632C129.097 69.1543 130.079 71.8069 132.044 73.8211C134.255 76.0806 137.571 77.2106 141.992 77.2106C146.02 77.2106 149.311 75.9332 151.865 73.379V76.7685H159.16V52.0106C159.16 43.5123 154.052 39.2632 143.834 39.2632C140.69 39.2632 138.16 39.6316 136.244 40.3685C134.181 41.2036 132.29 42.6036 130.571 44.5685L135.434 49.2106C137.301 46.8036 140.002 45.6 143.539 45.6C146.388 45.6 148.476 46.1895 149.802 47.3685C151.079 48.4492 151.718 50.193 151.718 52.6V63.3579ZM191.381 48.2527C189.71 46.5825 187.844 45.7474 185.781 45.7474C183.668 45.7474 181.924 46.5088 180.549 48.0316C179.075 49.6036 178.338 51.6421 178.338 54.1474V76.8422H170.823V39.4843H178.191V43.5369C180.352 40.5404 183.668 39.0422 188.138 39.0422C191.724 39.0422 194.696 40.2211 197.054 42.579L191.381 48.2527Z" fill="#D44638"/>
<path d="M213.224 76.8421C209.835 76.8421 207.231 75.8105 205.414 73.7473C203.793 71.93 202.982 69.5226 202.982 66.5263V24.3789H210.498V66.0842C210.498 68.9826 211.849 70.4315 214.55 70.4315H217.866V76.8421H213.224ZM238.352 39.1157C233.783 39.1157 230.075 40.5894 227.225 43.5368C224.278 46.5824 222.804 51.4456 222.804 58.1263C222.804 64.8563 224.278 69.7684 227.225 72.8631C229.387 75.0247 232.039 76.4 235.183 76.9894V69.9157C234.348 69.5226 233.587 69.0068 232.899 68.3684C231.18 66.6489 230.32 63.2352 230.32 58.1263C230.32 53.0173 231.18 49.628 232.899 47.9579C234.324 46.5333 236.141 45.821 238.352 45.821C240.612 45.821 242.454 46.5333 243.878 47.9579C245.597 49.628 246.457 53.0173 246.457 58.1263C246.457 63.2352 245.597 66.6489 243.878 68.3684C243.141 69.0563 242.306 69.5963 241.373 69.9894V76.9894C244.664 76.4489 247.391 75.0736 249.552 72.8631C252.499 69.7684 253.973 64.8563 253.973 58.1263C253.973 51.4456 252.499 46.5824 249.552 43.5368C246.703 40.5894 242.969 39.1157 238.352 39.1157ZM285.223 76.4736C285.223 79.2736 284.535 81.5089 283.16 83.1789C281.637 85.0947 279.377 86.0526 276.381 86.0526C273.335 86.0526 270.634 84.9473 268.276 82.7368L263.486 87.5263C267.072 90.8173 271.468 92.4631 276.676 92.4631C281.588 92.4631 285.518 90.9647 288.465 87.9684C291.314 85.07 292.739 81.2878 292.739 76.621V39.4842H285.444V43.4631C282.988 40.5157 279.697 39.0421 275.57 39.0421C271.739 39.0421 268.742 40.1227 266.581 42.2842C263.781 45.0842 262.381 50.1438 262.381 57.4631C262.381 64.7826 263.781 69.8421 266.581 72.6421C268.792 74.8526 271.763 75.9579 275.497 75.9579C276.676 75.9579 277.805 75.8594 278.886 75.6631V69.1052C278.444 69.1542 278.002 69.1789 277.56 69.1789C274.514 69.1789 272.402 67.9752 271.223 65.5684C270.339 63.8 269.897 61.0984 269.897 57.4631C269.897 53.8279 270.339 51.1263 271.223 49.3579C272.402 46.9509 274.514 45.7473 277.56 45.7473C280.655 45.7473 282.792 46.9509 283.971 49.3579C284.805 51.1263 285.223 53.8279 285.223 57.4631V76.4736ZM325.663 76.4736C325.663 79.2736 324.975 81.5089 323.6 83.1789C322.077 85.0947 319.817 86.0526 316.821 86.0526C313.775 86.0526 311.074 84.9473 308.716 82.7368L303.926 87.5263C307.512 90.8173 311.908 92.4631 317.116 92.4631C322.028 92.4631 325.958 90.9647 328.905 87.9684C331.754 85.07 333.179 81.2878 333.179 76.621V39.4842H325.884V43.4631C323.428 40.5157 320.137 39.0421 316.011 39.0421C312.179 39.0421 309.182 40.1227 307.021 42.2842C304.221 45.0842 302.821 50.1438 302.821 57.4631C302.821 64.7826 304.221 69.8421 307.021 72.6421C309.232 74.8526 312.203 75.9579 315.937 75.9579C317.116 75.9579 318.245 75.8594 319.326 75.6631V69.1052C318.884 69.1542 318.442 69.1789 318 69.1789C314.954 69.1789 312.842 67.9752 311.663 65.5684C310.779 63.8 310.337 61.0984 310.337 57.4631C310.337 53.8279 310.779 51.1263 311.663 49.3579C312.842 46.9509 314.954 45.7473 318 45.7473C321.095 45.7473 323.232 46.9509 324.411 49.3579C325.245 51.1263 325.663 53.8279 325.663 57.4631V76.4736ZM350.482 61.5157C350.678 64.4142 351.587 66.6736 353.208 68.2947C354.878 70.0142 357.113 70.8736 359.913 70.8736C363.45 70.8736 366.471 69.5963 368.976 67.0421L373.766 71.5368C369.934 75.4173 365.268 77.3578 359.766 77.3578C354.706 77.3578 350.752 75.9331 347.903 73.0842C344.612 69.8421 342.966 64.8805 342.966 58.2C342.966 52.2561 344.415 47.5648 347.313 44.1263C350.163 40.7859 353.994 39.1157 358.808 39.1157C363.769 39.1157 367.65 40.7859 370.45 44.1263C373.25 47.3684 374.65 51.6912 374.65 57.0947V60.4842H356.45V55.1789H367.282C367.184 53.2631 366.839 51.5684 366.25 50.0947C364.924 46.9509 362.443 45.3789 358.808 45.3789C355.173 45.3789 352.692 46.9509 351.366 50.0947C350.875 51.2736 350.58 52.5509 350.482 53.9263V61.5157ZM405.381 48.2526C403.711 46.5824 401.844 45.7473 399.781 45.7473C397.669 45.7473 395.925 46.5087 394.549 48.0315C393.076 49.6035 392.339 51.6421 392.339 54.1473V76.8421H384.823V39.4842H392.192V43.5368C394.353 40.5403 397.669 39.0421 402.139 39.0421C405.725 39.0421 408.697 40.221 411.055 42.5789L405.381 48.2526Z" fill="#282C36"/>
<path d="M349.326 94.7369V91.6211H352.463V94.7369H349.326ZM363.414 93.3685C362.46 94.3648 361.253 94.8632 359.793 94.8632C358.46 94.8632 357.372 94.4843 356.529 93.7264C355.435 92.7437 354.887 91.249 354.887 89.2421C354.887 87.2353 355.435 85.7474 356.529 84.779C357.372 84.0211 358.46 83.6421 359.793 83.6421C361.266 83.6421 362.474 84.1332 363.414 85.1158L361.561 86.9685C361.028 86.3932 360.438 86.1053 359.793 86.1053C359.147 86.1053 358.628 86.3437 358.235 86.8211C357.828 87.3264 357.624 88.1332 357.624 89.2421C357.624 90.3648 357.828 91.179 358.235 91.6843C358.628 92.1616 359.147 92.4 359.793 92.4C360.438 92.4 361.028 92.1121 361.561 91.5369L363.414 93.3685ZM368.548 92.1685C368.38 92.0843 368.233 91.9858 368.106 91.8737C367.699 91.4527 367.496 90.5616 367.496 89.2C367.496 87.8527 367.699 86.9753 368.106 86.5685C368.429 86.2458 368.85 86.0842 369.369 86.0842C369.903 86.0842 370.331 86.2458 370.654 86.5685C371.075 86.9753 371.285 87.8527 371.285 89.2C371.285 90.5616 371.075 91.4527 370.654 91.8737C370.555 91.9579 370.436 92.0421 370.296 92.1264V94.7158C371.306 94.5474 372.134 94.1264 372.78 93.4527C373.594 92.5964 374.001 91.179 374.001 89.2C374.001 87.2353 373.594 85.8248 372.78 84.9685C371.938 84.07 370.801 83.6211 369.369 83.6211C367.966 83.6211 366.843 84.07 366.001 84.9685C365.173 85.8248 364.759 87.2353 364.759 89.2C364.759 91.179 365.173 92.5964 366.001 93.4527C366.647 94.1543 367.496 94.5827 368.548 94.7369V92.1685ZM389.369 94.7369V88.1053C389.369 87.4174 389.172 86.8985 388.779 86.5474C388.456 86.2527 388.049 86.1053 387.558 86.1053C387.067 86.1053 386.66 86.2458 386.337 86.5264C385.93 86.8774 385.727 87.3827 385.727 88.0421V94.7369H382.99V88.1053C382.99 87.4174 382.793 86.8985 382.401 86.5474C382.077 86.2527 381.671 86.1053 381.179 86.1053C380.674 86.1053 380.26 86.2527 379.937 86.5474C379.544 86.8985 379.348 87.4174 379.348 88.1053V94.7369H376.611V83.7685H379.285V84.779C380.014 84.0211 380.927 83.6421 382.022 83.6421C383.285 83.6421 384.253 84.1053 384.927 85.0316C385.811 84.1053 386.906 83.6421 388.211 83.6421C389.362 83.6421 390.26 83.9648 390.906 84.6106C391.706 85.4106 392.106 86.449 392.106 87.7264V94.7369H389.369Z" fill="#282C36"/>
</g>
<defs>
<clipPath id="clip0">
<rect width="411.579" height="100" fill="white"/>
</clipPath>
</defs>
</svg>
