<svg width="103" height="35" viewBox="0 0 103 35" fill="none" xmlns="http://www.w3.org/2000/svg">
<path d="M5.43037 26.635C3.7703 26.635 2.49509 26.1297 1.60499 25.1193C0.811043 24.2292 0.414062 23.0501 0.414062 21.5826V0.939941H4.0951V21.3661C4.0951 22.7856 4.7568 23.4953 6.07996 23.4953H7.70395V26.635H5.43037ZM17.7371 8.15765C15.4996 8.15765 13.6833 8.87942 12.2877 10.323C10.8442 11.8146 10.1224 14.1965 10.1224 17.4685C10.1224 20.7647 10.8442 23.1705 12.2877 24.6862C13.3464 25.7449 14.6456 26.4185 16.1853 26.7072V23.2427C15.7764 23.0501 15.4034 22.7975 15.0665 22.4848C14.2246 21.6426 13.8034 19.9707 13.8034 17.4685C13.8034 14.9663 14.2246 13.3063 15.0665 12.4883C15.7643 11.7906 16.6544 11.4417 17.7371 11.4417C18.844 11.4417 19.7462 11.7906 20.4437 12.4883C21.2859 13.3063 21.7068 14.9663 21.7068 17.4685C21.7068 19.9707 21.2859 21.6426 20.4437 22.4848C20.0828 22.8217 19.674 23.0862 19.2167 23.2787V26.7072C20.8288 26.4424 22.1641 25.7689 23.2225 24.6862C24.6661 23.1705 25.3878 20.7647 25.3878 17.4685C25.3878 14.1965 24.6661 11.8146 23.2225 10.323C21.8272 8.87942 19.9988 8.15765 17.7371 8.15765ZM40.6935 26.4545C40.6935 27.8259 40.3566 28.9207 39.683 29.7386C38.937 30.6769 37.8304 31.1461 36.3629 31.1461C34.8711 31.1461 33.548 30.6047 32.3931 29.5221L30.0474 31.8678C31.8036 33.4797 33.9568 34.2858 36.5072 34.2858C38.9131 34.2858 40.8379 33.5519 42.2814 32.0844C43.6767 30.6648 44.3745 28.8124 44.3745 26.5267V8.33809H40.8018V10.2869C39.5987 8.84333 37.9869 8.12156 35.9659 8.12156C34.0893 8.12156 32.6215 8.65085 31.5631 9.70946C30.1917 11.0808 29.5061 13.5589 29.5061 17.1437C29.5061 20.7286 30.1917 23.2066 31.5631 24.5779C32.6458 25.6606 34.1012 26.2019 35.9298 26.2019C36.5072 26.2019 37.0604 26.1537 37.5899 26.0576V22.8457C37.3733 22.8697 37.1568 22.8818 36.9403 22.8818C35.4486 22.8818 34.4141 22.2922 33.8367 21.1134C33.4036 20.2473 33.1871 18.9242 33.1871 17.1437C33.1871 15.3632 33.4036 14.0401 33.8367 13.174C34.4141 11.9951 35.4486 11.4056 36.9403 11.4056C38.456 11.4056 39.5026 11.9951 40.08 13.174C40.4888 14.0401 40.6935 15.3632 40.6935 17.1437V26.4545ZM60.4999 26.4545C60.4999 27.8259 60.163 28.9207 59.4894 29.7386C58.7434 30.6769 57.6368 31.1461 56.1693 31.1461C54.6776 31.1461 53.3544 30.6047 52.1996 29.5221L49.8538 31.8678C51.61 33.4797 53.7632 34.2858 56.3137 34.2858C58.7195 34.2858 60.6443 33.5519 62.0878 32.0844C63.4831 30.6648 64.1809 28.8124 64.1809 26.5267V8.33809H60.6082V10.2869C59.4051 8.84333 57.7933 8.12156 55.7723 8.12156C53.8957 8.12156 52.428 8.65085 51.3695 9.70946C49.9982 11.0808 49.3125 13.5589 49.3125 17.1437C49.3125 20.7286 49.9982 23.2066 51.3695 24.5779C52.4522 25.6606 53.9076 26.2019 55.7362 26.2019C56.3137 26.2019 56.8668 26.1537 57.3963 26.0576V22.8457C57.1798 22.8697 56.9632 22.8818 56.7467 22.8818C55.255 22.8818 54.2205 22.2922 53.6431 21.1134C53.21 20.2473 52.9935 18.9242 52.9935 17.1437C52.9935 15.3632 53.21 14.0401 53.6431 13.174C54.2205 11.9951 55.255 11.4056 56.7467 11.4056C58.2624 11.4056 59.309 11.9951 59.8864 13.174C60.2952 14.0401 60.4999 15.3632 60.4999 17.1437V26.4545ZM72.6553 19.1286C72.7517 20.5481 73.1966 21.6548 73.9906 22.4487C74.8088 23.2909 75.9033 23.7118 77.2746 23.7118C79.0069 23.7118 80.4865 23.0862 81.7135 21.8352L84.0593 24.0366C82.1827 25.9372 79.8972 26.8876 77.2025 26.8876C74.7245 26.8876 72.7878 26.1898 71.3922 24.7945C69.7803 23.2066 68.9743 20.7765 68.9743 17.5046C68.9743 14.5934 69.6842 12.2958 71.1035 10.6117C72.4991 8.97565 74.3757 8.15765 76.7333 8.15765C79.1634 8.15765 81.0639 8.97565 82.4353 10.6117C83.8067 12.1996 84.4923 14.3168 84.4923 16.9633V18.6233H75.5785V16.025H80.8835C80.8355 15.0866 80.667 14.2566 80.3783 13.5348C79.7287 11.9951 78.5138 11.2252 76.7333 11.2252C74.9531 11.2252 73.738 11.9951 73.0884 13.5348C72.8479 14.1123 72.7035 14.7378 72.6553 15.4114V19.1286ZM99.5436 12.6326C98.7257 11.8146 97.8113 11.4056 96.8008 11.4056C95.7664 11.4056 94.9124 11.7785 94.2386 12.5244C93.5168 13.2943 93.1559 14.2927 93.1559 15.5197V26.635H89.4749V8.33809H93.0837V10.323C94.1424 8.85537 95.7664 8.12156 97.9557 8.12156C99.7122 8.12156 101.168 8.69898 102.322 9.85381L99.5436 12.6326Z" fill="#282C36"/>
</svg>
